<?xml version="1.0" standalone="no"?>
<!DOCTYPE svg PUBLIC "-//W3C//DTD SVG 20010904//EN"
 "http://www.w3.org/TR/2001/REC-SVG-20010904/DTD/svg10.dtd">
<svg version="1.0" xmlns="http://www.w3.org/2000/svg"
 width="158.000000pt" height="158.000000pt" viewBox="0 0 158.000000 158.000000"
 preserveAspectRatio="xMidYMid meet">
<metadata>
Created by potrace 1.14, written by Peter Selinger 2001-2017
</metadata>
<g transform="translate(0.000000,158.000000) scale(0.100000,-0.100000)"
fill="#000000" stroke="none">
<path d="M1 1193 c0 -214 4 -380 8 -370 4 10 10 18 14 18 35 -4 38 -1 31 34
-4 23 -2 35 5 35 6 0 10 -4 9 -9 -4 -11 6 -13 27 -5 8 4 15 13 15 21 0 8 5 11
11 8 6 -4 9 0 7 8 -2 9 2 17 7 19 6 2 11 -31 13 -81 3 -78 2 -83 -16 -79 -15
4 -19 1 -17 -16 4 -31 4 -31 20 -10 13 17 14 -5 9 -202 -5 -197 -4 -223 11
-237 15 -16 15 -18 -10 -27 -14 -5 -37 -13 -51 -16 -52 -13 -63 -45 -62 -170
l0 -114 774 0 775 0 -3 137 -3 137 -63 19 c-61 18 -63 20 -42 34 21 15 22 19
18 274 -2 192 0 255 8 244 6 -8 16 -15 23 -15 15 0 14 -17 -1 -22 -7 -3 -9
-12 -5 -22 6 -15 10 -16 23 -5 12 10 15 10 12 -2 -2 -8 4 -14 12 -14 13 0 15
53 18 408 l2 407 -790 0 -790 0 1 -387z"/>
<path d="M97 869 c-3 -12 0 -19 9 -19 8 0 14 -4 14 -10 0 -5 5 -10 10 -10 16
0 12 18 -9 39 -19 19 -19 19 -24 0z"/>
<path d="M90 830 c0 -5 5 -10 10 -10 6 0 10 5 10 10 0 6 -4 10 -10 10 -5 0
-10 -4 -10 -10z"/>
<path d="M26 766 c3 -8 0 -23 -6 -33 -10 -16 -11 -16 -6 -1 3 10 1 20 -4 23
-14 9 -12 -26 3 -50 7 -12 23 -20 39 -20 33 0 44 10 30 28 -8 10 -8 20 2 38
11 21 11 26 0 26 -8 0 -14 -7 -14 -16 -1 -14 -2 -14 -14 2 -16 21 -38 23 -30
3z"/>
</g>
</svg>
